<svg width="1080" height="1080" viewBox="0 0 1080 1080" fill="none" xmlns="http://www.w3.org/2000/svg">
<rect width="1080" height="1080" fill="#F7F7F7"/>
<path d="M245.704 806.616H224.968C219.016 806.616 213.672 805.656 208.936 803.736C204.264 801.816 200.296 799.128 197.032 795.672C193.768 792.216 191.272 788.088 189.544 783.288C187.816 778.424 186.952 773.048 186.952 767.16C186.952 761.272 187.848 755.864 189.64 750.936C191.432 746.008 193.96 741.784 197.224 738.264C200.552 734.68 204.552 731.896 209.224 729.912C213.96 727.928 219.272 726.936 225.16 726.936C230.408 726.936 235.24 727.736 239.656 729.336C244.136 730.936 248.008 733.272 251.272 736.344C254.536 739.416 257.064 743.224 258.856 747.768C260.712 752.248 261.64 757.4 261.64 763.224C261.64 766.872 261.256 770.2 260.488 773.208C259.72 776.152 258.568 778.712 257.032 780.888C255.56 783 253.736 784.632 251.56 785.784C249.384 786.936 246.888 787.512 244.072 787.512C240.744 787.512 238.088 786.712 236.104 785.112C234.12 783.512 233 781.368 232.744 778.68H232.264C231.432 781.368 230.12 783.48 228.328 785.016C226.536 786.552 224.104 787.32 221.032 787.32C218.856 787.32 216.84 786.904 214.984 786.072C213.128 785.176 211.496 783.896 210.088 782.232C208.744 780.568 207.656 778.488 206.824 775.992C206.056 773.432 205.672 770.488 205.672 767.16C205.672 763.832 206.056 760.888 206.824 758.328C207.656 755.768 208.744 753.656 210.088 751.992C211.496 750.328 213.128 749.08 214.984 748.248C216.84 747.352 218.856 746.904 221.032 746.904C223.72 746.904 225.896 747.64 227.56 749.112C229.288 750.52 230.504 752.248 231.208 754.296H231.688V747.768H241.096V774.552C241.096 776.408 241.48 777.752 242.248 778.584C243.016 779.416 244.136 779.832 245.608 779.832C248.04 779.832 249.96 778.552 251.368 775.992C252.776 773.432 253.48 769.624 253.48 764.568V761.4C253.48 757.24 252.776 753.496 251.368 750.168C249.96 746.84 247.976 744.024 245.416 741.72C242.92 739.416 239.944 737.656 236.488 736.44C233.032 735.16 229.256 734.52 225.16 734.52C220.616 734.52 216.488 735.288 212.776 736.824C209.128 738.36 205.992 740.472 203.368 743.16C200.744 745.848 198.728 749.048 197.32 752.76C195.912 756.472 195.208 760.536 195.208 764.952V769.176C195.208 773.592 195.912 777.624 197.32 781.272C198.728 784.92 200.712 788.056 203.272 790.68C205.896 793.304 209.032 795.32 212.68 796.728C216.328 798.2 220.424 798.936 224.968 798.936H245.704V806.616ZM224.2 779.352C226.312 779.352 228.072 778.68 229.48 777.336C230.952 775.928 231.688 774.296 231.688 772.44V761.112C231.688 759.32 230.984 757.848 229.576 756.696C228.168 755.48 226.376 754.872 224.2 754.872C221.512 754.872 219.432 755.704 217.96 757.368C216.552 758.968 215.848 761.08 215.848 763.704V770.52C215.848 773.208 216.552 775.352 217.96 776.952C219.432 778.552 221.512 779.352 224.2 779.352Z" fill="#404040"/>
<path d="M305.36 786.648H304.88C304.432 787.928 303.824 789.144 303.056 790.296C302.352 791.384 301.424 792.376 300.272 793.272C299.184 794.168 297.84 794.872 296.24 795.384C294.704 795.896 292.912 796.152 290.864 796.152C285.68 796.152 281.712 794.456 278.96 791.064C276.208 787.672 274.832 782.84 274.832 776.568V744.888H287.12V775.32C287.12 778.776 287.792 781.432 289.136 783.288C290.48 785.08 292.624 785.976 295.568 785.976C296.784 785.976 297.968 785.816 299.12 785.496C300.336 785.176 301.392 784.696 302.288 784.056C303.184 783.352 303.92 782.52 304.496 781.56C305.072 780.536 305.36 779.352 305.36 778.008V744.888H317.648V795H305.36V786.648Z" fill="#404040"/>
<path d="M332.805 795V744.888H345.093V753.24H345.573C346.597 750.552 348.197 748.312 350.373 746.52C352.613 744.664 355.685 743.736 359.589 743.736C364.773 743.736 368.741 745.432 371.493 748.824C374.245 752.216 375.621 757.048 375.621 763.32V795H363.333V764.568C363.333 760.984 362.693 758.296 361.413 756.504C360.133 754.712 358.021 753.816 355.077 753.816C353.797 753.816 352.549 754.008 351.333 754.392C350.181 754.712 349.125 755.224 348.165 755.928C347.269 756.568 346.533 757.4 345.957 758.424C345.381 759.384 345.093 760.536 345.093 761.88V795H332.805Z" fill="#404040"/>
<path d="M405.851 795C401.627 795 398.395 793.912 396.155 791.736C393.979 789.496 392.891 786.328 392.891 782.232V754.68H385.499V744.888H389.339C391.195 744.888 392.443 744.472 393.083 743.64C393.787 742.744 394.139 741.432 394.139 739.704V731.16H405.179V744.888H415.451V754.68H405.179V785.208H414.683V795H405.851Z" fill="#404040"/>
<path d="M457.021 786.648H456.541C456.093 787.928 455.485 789.144 454.717 790.296C454.013 791.384 453.085 792.376 451.933 793.272C450.845 794.168 449.501 794.872 447.901 795.384C446.365 795.896 444.573 796.152 442.525 796.152C437.341 796.152 433.373 794.456 430.621 791.064C427.869 787.672 426.493 782.84 426.493 776.568V744.888H438.781V775.32C438.781 778.776 439.453 781.432 440.797 783.288C442.141 785.08 444.285 785.976 447.229 785.976C448.445 785.976 449.629 785.816 450.781 785.496C451.997 785.176 453.053 784.696 453.949 784.056C454.845 783.352 455.581 782.52 456.157 781.56C456.733 780.536 457.021 779.352 457.021 778.008V744.888H469.309V795H457.021V786.648Z" fill="#404040"/>
<path d="M484.467 723.96H496.755V766.776H497.235L503.859 757.752L515.091 744.888H529.011L511.731 764.28L530.835 795H516.243L503.379 772.536L496.755 779.736V795H484.467V723.96Z" fill="#404040"/>
<path d="M539.333 723.96H551.621V766.776H552.101L558.725 757.752L569.957 744.888H583.877L566.597 764.28L585.701 795H571.109L558.245 772.536L551.621 779.736V795H539.333V723.96Z" fill="#404040"/>
<path d="M600.343 737.592C597.783 737.592 595.927 737.016 594.775 735.864C593.687 734.712 593.143 733.24 593.143 731.448V729.528C593.143 727.736 593.687 726.264 594.775 725.112C595.927 723.96 597.783 723.384 600.343 723.384C602.839 723.384 604.663 723.96 605.815 725.112C606.967 726.264 607.543 727.736 607.543 729.528V731.448C607.543 733.24 606.967 734.712 605.815 735.864C604.663 737.016 602.839 737.592 600.343 737.592ZM594.199 744.888H606.487V795H594.199V744.888Z" fill="#404040"/>
<path d="M637.338 795C633.114 795 629.882 793.912 627.642 791.736C625.466 789.496 624.378 786.328 624.378 782.232V754.68H616.986V744.888H620.826C622.682 744.888 623.93 744.472 624.57 743.64C625.274 742.744 625.626 741.432 625.626 739.704V731.16H636.666V744.888H646.938V754.68H636.666V785.208H646.17V795H637.338Z" fill="#404040"/>
<path d="M695.421 795C692.733 795 690.589 794.232 688.989 792.696C687.453 791.096 686.493 788.984 686.109 786.36H685.533C684.701 789.624 683.005 792.088 680.445 793.752C677.885 795.352 674.717 796.152 670.941 796.152C665.821 796.152 661.885 794.808 659.133 792.12C656.381 789.432 655.005 785.848 655.005 781.368C655.005 776.184 656.861 772.344 660.573 769.848C664.285 767.288 669.565 766.008 676.413 766.008H684.957V762.36C684.957 759.544 684.221 757.368 682.749 755.832C681.277 754.296 678.909 753.528 675.645 753.528C672.765 753.528 670.429 754.168 668.637 755.448C666.909 756.664 665.437 758.136 664.221 759.864L656.925 753.336C658.781 750.456 661.245 748.152 664.317 746.424C667.389 744.632 671.453 743.736 676.509 743.736C683.293 743.736 688.445 745.272 691.965 748.344C695.485 751.416 697.245 755.832 697.245 761.592V785.208H702.237V795H695.421ZM675.069 787.224C677.821 787.224 680.157 786.616 682.077 785.4C683.997 784.184 684.957 782.392 684.957 780.024V773.4H677.085C670.685 773.4 667.485 775.448 667.485 779.544V781.176C667.485 783.224 668.125 784.76 669.405 785.784C670.749 786.744 672.637 787.224 675.069 787.224Z" fill="#404040"/>
<path d="M721.279 796.056C718.655 796.056 716.703 795.416 715.423 794.136C714.207 792.792 713.599 791.096 713.599 789.048V787.32C713.599 785.272 714.207 783.576 715.423 782.232C716.703 780.888 718.655 780.216 721.279 780.216C723.967 780.216 725.919 780.888 727.135 782.232C728.351 783.576 728.959 785.272 728.959 787.32V789.048C728.959 791.096 728.351 792.792 727.135 794.136C725.919 795.416 723.967 796.056 721.279 796.056Z" fill="#404040"/>
<path d="M760.143 796.152C755.343 796.152 751.31 795.352 748.047 793.752C744.783 792.088 741.902 789.816 739.406 786.936L746.894 779.64C748.75 781.752 750.766 783.416 752.943 784.632C755.182 785.848 757.742 786.456 760.622 786.456C763.567 786.456 765.678 785.944 766.958 784.92C768.302 783.896 768.974 782.488 768.974 780.696C768.974 779.224 768.495 778.072 767.534 777.24C766.638 776.344 765.07 775.736 762.831 775.416L757.839 774.744C752.398 774.04 748.239 772.504 745.359 770.136C742.543 767.704 741.135 764.184 741.135 759.576C741.135 757.144 741.583 754.968 742.479 753.048C743.375 751.064 744.654 749.4 746.318 748.056C747.982 746.648 749.966 745.592 752.271 744.888C754.638 744.12 757.263 743.736 760.143 743.736C762.575 743.736 764.719 743.928 766.575 744.312C768.495 744.632 770.222 745.144 771.758 745.848C773.294 746.488 774.702 747.32 775.982 748.344C777.262 749.304 778.51 750.392 779.727 751.608L772.526 758.808C771.055 757.272 769.294 755.992 767.247 754.968C765.199 753.944 762.958 753.432 760.526 753.432C757.839 753.432 755.886 753.912 754.67 754.872C753.518 755.832 752.943 757.08 752.943 758.616C752.943 760.28 753.422 761.56 754.383 762.456C755.406 763.288 757.103 763.896 759.471 764.28L764.558 764.952C775.374 766.488 780.782 771.416 780.782 779.736C780.782 782.168 780.271 784.408 779.247 786.456C778.286 788.44 776.911 790.168 775.119 791.64C773.327 793.048 771.151 794.168 768.591 795C766.095 795.768 763.279 796.152 760.143 796.152Z" fill="#404040"/>
<path d="M823.697 786.648H823.217C822.321 789.528 820.625 791.832 818.129 793.56C815.633 795.288 812.721 796.152 809.393 796.152C803.057 796.152 798.193 793.88 794.801 789.336C791.473 784.792 789.809 778.296 789.809 769.848C789.809 761.464 791.473 755.032 794.801 750.552C798.193 746.008 803.057 743.736 809.393 743.736C812.721 743.736 815.633 744.6 818.129 746.328C820.625 747.992 822.321 750.264 823.217 753.144H823.697V723.96H835.985V795H823.697V786.648ZM813.329 785.976C816.273 785.976 818.737 785.272 820.721 783.864C822.705 782.456 823.697 780.44 823.697 777.816V761.88C823.697 759.448 822.705 757.496 820.721 756.024C818.737 754.552 816.273 753.816 813.329 753.816C810.129 753.816 807.537 754.904 805.553 757.08C803.633 759.192 802.673 762.04 802.673 765.624V774.264C802.673 777.848 803.633 780.696 805.553 782.808C807.537 784.92 810.129 785.976 813.329 785.976Z" fill="#404040"/>
<path d="M887.979 795C885.291 795 883.147 794.232 881.547 792.696C880.011 791.096 879.051 788.984 878.667 786.36H878.091C877.259 789.624 875.563 792.088 873.003 793.752C870.443 795.352 867.275 796.152 863.499 796.152C858.379 796.152 854.443 794.808 851.691 792.12C848.939 789.432 847.563 785.848 847.563 781.368C847.563 776.184 849.419 772.344 853.131 769.848C856.843 767.288 862.123 766.008 868.971 766.008H877.515V762.36C877.515 759.544 876.779 757.368 875.307 755.832C873.835 754.296 871.467 753.528 868.203 753.528C865.323 753.528 862.987 754.168 861.195 755.448C859.467 756.664 857.995 758.136 856.779 759.864L849.483 753.336C851.339 750.456 853.803 748.152 856.875 746.424C859.947 744.632 864.011 743.736 869.067 743.736C875.851 743.736 881.003 745.272 884.523 748.344C888.043 751.416 889.803 755.832 889.803 761.592V785.208H894.795V795H887.979ZM867.627 787.224C870.379 787.224 872.715 786.616 874.635 785.4C876.555 784.184 877.515 782.392 877.515 780.024V773.4H869.643C863.243 773.4 860.043 775.448 860.043 779.544V781.176C860.043 783.224 860.683 784.76 861.963 785.784C863.307 786.744 865.195 787.224 867.627 787.224Z" fill="#404040"/>
<path d="M646.5 358.5C646.5 406.938 606.656 446 559 446H558.219C510.563 446 471.5 406.938 471.5 359.281V358.5C471.5 310.844 510.563 271 559 271C606.656 271 646.5 310.844 646.5 358.5Z" fill="#404040"/>
<path d="M584 521C584 506.156 586.344 492.094 591.813 478.812C582.438 481.938 567.594 483.5 559 483.5C539.469 483.5 521.5 478.812 505.094 471H498.844C448.844 471.781 409 511.625 409 561.625V583.5C409 604.594 425.406 621 446.5 621H634.781C603.531 598.344 584 562.406 584 521Z" fill="#404040"/>
<path fill-rule="evenodd" clip-rule="evenodd" d="M709 421C653.531 421 609 466.312 609 521C609 576.469 653.531 621 709 621C763.688 621 809 576.469 809 521C809 466.312 763.688 421 709 421ZM709.305 515.815L697.919 504.429L711.135 491.213L738.787 518.865L701.782 555.87C698.122 559.326 693.242 560.953 688.363 560.546L675.553 559.123L661.931 572.543C661.321 573.152 660.304 573.152 659.694 572.543L657.458 570.306C656.848 569.696 656.848 568.679 657.458 567.866L670.877 554.447L669.454 541.434C669.047 536.554 670.674 531.674 674.13 528.218L679.62 522.932L690.803 534.318C691.413 534.928 692.632 534.928 693.242 534.318L695.479 531.878C696.089 531.268 696.089 530.251 695.479 529.641L684.093 518.255L693.242 509.106L704.629 520.492C705.239 521.102 706.255 521.102 706.865 520.492L709.305 518.052C709.915 517.442 709.915 516.425 709.305 515.815ZM744.48 469.457L760.543 485.52C761.153 486.13 761.153 487.147 760.543 487.757L758.306 490.196C757.696 490.806 756.679 490.806 756.069 490.196L750.173 484.3L741.023 493.653L756.069 508.496C756.679 509.106 756.679 510.122 756.069 510.732L749.156 517.645C748.546 518.458 747.327 518.458 746.717 517.645L712.355 483.283C711.745 482.47 711.745 481.454 712.355 480.844L719.268 473.931C719.878 473.321 720.894 473.321 721.504 473.931L724.961 477.387L736.347 488.977L745.7 479.827L739.804 473.931C739.194 473.321 739.194 472.304 739.804 471.694L742.243 469.457C742.853 468.848 743.87 468.848 744.48 469.457Z" fill="#404040"/>
<path fill-rule="evenodd" clip-rule="evenodd" d="M421 343H457.235C456.422 348.214 456 353.558 456 359C456 382.43 463.823 404.033 477 421.339V444.643C442.403 455.785 413.747 480.166 397 511.818V493C397 490 394 487 391 487H371C367.5 487 365 490 365 493V535H387.325C385.691 540.208 384.357 545.548 383.343 551H269V541C269 538 271.5 535 275 535H285V355C285 348.5 290 343 297 343H341V307C341 300.5 346 295 353 295H409C415.5 295 421 300.5 421 307V343ZM429 397C429 394 426 391 423 391H403C399.5 391 397 394 397 397V417C397 420.5 399.5 423 403 423H423C426 423 429 420.5 429 417V397ZM333 417C333 420.5 335.5 423 339 423H359C362 423 365 420.5 365 417V397C365 394 362 391 359 391H339C335.5 391 333 394 333 397V417ZM429 445C429 442 426 439 423 439H403C399.5 439 397 442 397 445V465C397 468.5 399.5 471 403 471H423C426 471 429 468.5 429 465V445ZM365 465V445C365 442 362 439 359 439H339C335.5 439 333 442 333 445V465C333 468.5 335.5 471 339 471H359C362 471 365 468.5 365 465ZM357 340C357 342 358 343 360 343H373V356C373 358 374 359 376 359H386C387.5 359 389 358 389 356V343H402C403.5 343 405 342 405 340V330C405 328.5 403.5 327 402 327H389V314C389 312.5 387.5 311 386 311H376C374 311 373 312.5 373 314V327H360C358 327 357 328.5 357 330V340Z" fill="#404040"/>
</svg>
