<svg width="279" height="124" viewBox="0 0 279 124" fill="none" xmlns="http://www.w3.org/2000/svg">
<path d="M40.148 54.947H27.758C16.666 54.947 9.586 47.69 9.586 36.952V34.71C9.586 23.972 16.666 16.302 27.758 16.302C37.788 16.302 44.927 22.379 44.927 32.468V34.12C44.927 40.138 43.098 42.97 40.443 42.97C38.791 42.97 37.847 41.967 37.847 40.02V24.149H31.298V28.22H31.003C30.295 25.624 28.171 23.618 24.926 23.618C19.734 23.618 15.84 27.807 15.84 35.831C15.84 43.855 19.734 48.044 24.926 48.044C28.82 48.044 30.944 45.861 31.711 42.616H32.006C32.242 45.92 35.133 48.162 39.381 48.162C46.107 48.162 50.414 42.616 50.414 33.235C50.414 19.783 41.328 11.169 27.758 11.169C13.185 11.169 4.099 21.435 4.099 35.831C4.099 50.227 12.831 60.139 27.758 60.139H40.148V54.947ZM27.345 42.675C24.513 42.675 22.684 40.669 22.684 37.837V33.825C22.684 30.993 24.513 28.987 27.345 28.987C29.41 28.987 31.298 30.344 31.298 32.173V39.017C31.298 40.787 29.351 42.675 27.345 42.675ZM58.6929 11.818V36.126C58.6929 48.28 63.0589 53.708 74.8589 53.708C86.6589 53.708 91.0249 48.28 91.0249 36.126V11.818H82.2929V37.07C82.2929 42.852 80.1689 45.743 74.8589 45.743C69.5489 45.743 67.4249 42.852 67.4249 37.07V11.818H58.6929ZM124.321 53H134.115V11.818H125.678V39.548H125.501L121.548 31.288L110.279 11.818H100.485V53H108.922V25.27H109.099L113.052 33.53L124.321 53ZM172.089 19.783V11.818H140.819V19.783H151.97V53H160.938V19.783H172.089ZM178.578 11.818V36.126C178.578 48.28 182.944 53.708 194.744 53.708C206.544 53.708 210.91 48.28 210.91 36.126V11.818H202.178V37.07C202.178 42.852 200.054 45.743 194.744 45.743C189.434 45.743 187.31 42.852 187.31 37.07V11.818H178.578ZM245.622 53H256.183L241.079 28.751L254.944 11.818H244.796L235.533 23.441L229.692 31.406H229.338V11.818H220.37V53H229.338V41.554L234.707 35.064L245.622 53ZM30.295 115H40.856L25.752 90.751L39.617 73.818H29.469L20.206 85.441L14.365 93.406H14.011V73.818H5.043V115H14.011V103.554L19.38 97.064L30.295 115ZM64.7091 115V107.861H59.3991V80.957H64.7091V73.818H45.1211V80.957H50.4311V107.861H45.1211V115H64.7091ZM100.86 81.783V73.818H69.5904V81.783H80.7414V115H89.7094V81.783H100.86ZM138.417 115L125.024 73.818H113.932L100.362 115H109.448L112.398 105.206H126.145L129.095 115H138.417ZM123.962 97.595H114.522L119.065 81.96H119.36L123.962 97.595ZM150.459 115.649C153.999 115.649 155.651 113.643 155.651 110.929V109.749C155.651 107.035 153.999 105.029 150.459 105.029C146.919 105.029 145.267 107.035 145.267 109.749V110.929C145.267 113.643 146.919 115.649 150.459 115.649ZM178.046 115.708C188.312 115.708 194.094 110.221 194.094 102.315C194.094 95.235 190.023 91.459 181.586 90.102L177.515 89.453C174.093 88.922 172.618 87.86 172.618 85.028C172.618 82.55 174.565 81.016 178.577 81.016C182.825 81.016 185.48 82.609 187.427 84.91L193.386 78.892C190.023 75.175 185.303 73.11 179.108 73.11C169.432 73.11 163.65 78.243 163.65 85.618C163.65 92.521 167.603 96.769 176.276 97.89L180.347 98.421C184.182 98.952 185.126 100.604 185.126 102.846C185.126 105.855 183.002 107.802 178.636 107.802C174.624 107.802 171.084 106.209 168.311 103.082L162.411 109.041C165.951 112.935 170.848 115.708 178.046 115.708ZM202.119 115H217.636C228.551 115 235.749 108.097 235.749 94.409C235.749 80.721 228.551 73.818 217.636 73.818H202.119V115ZM211.087 107.035V81.783H217.636C222.946 81.783 226.25 84.674 226.25 91.223V97.595C226.25 104.144 222.946 107.035 217.636 107.035H211.087ZM276.35 115L262.957 73.818H251.865L238.295 115H247.381L250.331 105.206H264.078L267.028 115H276.35ZM261.895 97.595H252.455L256.998 81.96H257.293L261.895 97.595Z" fill="#404040"/>
</svg>
