<svg width="1080" height="1080" viewBox="0 0 1080 1080" fill="none" xmlns="http://www.w3.org/2000/svg">
<rect width="1080" height="1080" fill="url(#paint0_linear)"/>
<path d="M245.704 798.936H224.968C206.92 798.936 195.208 786.84 195.208 769.176V764.952C195.208 747.384 207.016 734.52 225.16 734.52C241.576 734.52 253.48 744.792 253.48 761.4V764.568C253.48 774.648 250.408 779.832 245.608 779.832C242.728 779.832 241.096 778.296 241.096 774.552V747.768H231.688V754.296H231.208C229.864 750.168 226.408 746.904 221.032 746.904C212.392 746.904 205.672 753.72 205.672 767.16C205.672 780.504 212.392 787.32 221.032 787.32C227.176 787.32 230.632 783.96 232.264 778.68H232.744C233.224 783.96 237.448 787.512 244.072 787.512C255.304 787.512 261.64 777.816 261.64 763.224C261.64 739.896 246.088 726.936 225.16 726.936C201.736 726.936 186.952 743.64 186.952 767.16C186.952 790.68 201.256 806.616 224.968 806.616H245.704V798.936ZM224.2 779.352C218.92 779.352 215.848 775.8 215.848 770.52V763.704C215.848 758.52 218.92 754.872 224.2 754.872C228.52 754.872 231.688 757.56 231.688 761.112V772.44C231.688 776.184 228.424 779.352 224.2 779.352Z" fill="white"/>
<path d="M305.36 795H317.648V744.888H305.36V778.008C305.36 783.384 300.464 785.976 295.568 785.976C289.712 785.976 287.12 782.232 287.12 775.32V744.888H274.832V776.568C274.832 789.048 280.592 796.152 290.864 796.152C299.12 796.152 303.152 791.64 304.88 786.648H305.36V795Z" fill="white"/>
<path d="M345.093 795V761.88C345.093 756.504 349.989 753.816 355.077 753.816C360.933 753.816 363.333 757.464 363.333 764.568V795H375.621V763.32C375.621 750.84 369.861 743.736 359.589 743.736C351.813 743.736 347.589 747.864 345.573 753.24H345.093V744.888H332.805V795H345.093Z" fill="white"/>
<path d="M405.851 795H414.683V785.208H405.179V754.68H415.451V744.888H405.179V731.16H394.139V739.704C394.139 743.16 392.987 744.888 389.339 744.888H385.499V754.68H392.891V782.232C392.891 790.392 397.403 795 405.851 795Z" fill="white"/>
<path d="M457.021 795H469.309V744.888H457.021V778.008C457.021 783.384 452.125 785.976 447.229 785.976C441.373 785.976 438.781 782.232 438.781 775.32V744.888H426.493V776.568C426.493 789.048 432.253 796.152 442.525 796.152C450.781 796.152 454.813 791.64 456.541 786.648H457.021V795Z" fill="white"/>
<path d="M484.466 795H496.754V779.736L503.378 772.536L516.242 795H530.835L511.73 764.28L529.01 744.888H515.09L503.858 757.752L497.234 766.776H496.754V723.96H484.466V795Z" fill="white"/>
<path d="M539.333 795H551.621V779.736L558.245 772.536L571.109 795H585.701L566.597 764.28L583.877 744.888H569.957L558.725 757.752L552.101 766.776H551.621V723.96H539.333V795Z" fill="white"/>
<path d="M600.343 737.592C605.335 737.592 607.543 735 607.543 731.448V729.528C607.543 725.976 605.335 723.384 600.343 723.384C595.255 723.384 593.143 725.976 593.143 729.528V731.448C593.143 735 595.255 737.592 600.343 737.592ZM594.199 795H606.487V744.888H594.199V795Z" fill="white"/>
<path d="M637.338 795H646.17V785.208H636.666V754.68H646.938V744.888H636.666V731.16H625.626V739.704C625.626 743.16 624.474 744.888 620.826 744.888H616.986V754.68H624.378V782.232C624.378 790.392 628.89 795 637.338 795Z" fill="white"/>
<path d="M670.941 796.152C678.429 796.152 683.901 792.792 685.533 786.36H686.109C686.877 791.544 690.141 795 695.421 795H702.236V785.208H697.245V761.592C697.245 750.168 690.045 743.736 676.509 743.736C666.429 743.736 660.573 747.576 656.925 753.336L664.221 759.864C666.621 756.408 669.884 753.528 675.645 753.528C682.173 753.528 684.957 756.792 684.957 762.36V766.008H676.413C662.781 766.008 655.005 771.096 655.005 781.368C655.005 790.296 660.765 796.152 670.941 796.152ZM675.069 787.224C670.269 787.224 667.485 785.208 667.485 781.176V779.544C667.485 775.608 670.652 773.4 677.085 773.4H684.957V780.024C684.957 784.728 680.54 787.224 675.069 787.224Z" fill="white"/>
<path d="M721.279 796.056C726.559 796.056 728.959 793.08 728.959 789.048V787.32C728.959 783.192 726.559 780.216 721.279 780.216C716.095 780.216 713.599 783.192 713.599 787.32V789.048C713.599 793.08 716.095 796.056 721.279 796.056Z" fill="white"/>
<path d="M760.049 796.152C772.529 796.152 780.689 789.432 780.689 779.736C780.689 771.384 775.409 766.488 764.465 764.952L759.377 764.28C754.673 763.512 752.849 761.976 752.849 758.616C752.849 755.544 755.153 753.432 760.433 753.432C765.329 753.432 769.553 755.736 772.433 758.808L779.633 751.608C774.833 746.616 769.841 743.736 760.049 743.736C748.625 743.736 741.041 749.88 741.041 759.576C741.041 768.696 746.993 773.4 757.745 774.744L762.737 775.416C767.153 775.992 768.881 777.816 768.881 780.696C768.881 784.248 766.385 786.456 760.529 786.456C754.865 786.456 750.449 783.864 746.801 779.64L739.313 786.936C744.305 792.696 750.545 796.152 760.049 796.152Z" fill="white"/>
<path d="M823.603 795H835.891V723.96H823.603V753.144H823.123C821.395 747.384 815.923 743.736 809.299 743.736C796.723 743.736 789.715 753.144 789.715 769.848C789.715 786.648 796.723 796.152 809.299 796.152C815.923 796.152 821.299 792.312 823.123 786.648H823.603V795ZM813.235 785.976C806.899 785.976 802.579 781.368 802.579 774.264V765.624C802.579 758.52 806.899 753.816 813.235 753.816C819.091 753.816 823.603 756.984 823.603 761.88V777.816C823.603 783 819.091 785.976 813.235 785.976Z" fill="white"/>
<path d="M863.405 796.152C870.893 796.152 876.365 792.792 877.997 786.36H878.573C879.341 791.544 882.605 795 887.885 795H894.701V785.208H889.709V761.592C889.709 750.168 882.509 743.736 868.973 743.736C858.893 743.736 853.037 747.576 849.389 753.336L856.685 759.864C859.085 756.408 862.349 753.528 868.109 753.528C874.637 753.528 877.421 756.792 877.421 762.36V766.008H868.877C855.245 766.008 847.469 771.096 847.469 781.368C847.469 790.296 853.229 796.152 863.405 796.152ZM867.533 787.224C862.733 787.224 859.949 785.208 859.949 781.176V779.544C859.949 775.608 863.117 773.4 869.549 773.4H877.421V780.024C877.421 784.728 873.005 787.224 867.533 787.224Z" fill="white"/>
<path d="M646.5 358.5C646.5 406.938 606.656 446 559 446H558.219C510.562 446 471.5 406.938 471.5 359.281V358.5C471.5 310.844 510.562 271 559 271C606.656 271 646.5 310.844 646.5 358.5Z" fill="white"/>
<path d="M584 521C584 506.156 586.344 492.094 591.812 478.812C582.438 481.938 567.594 483.5 559 483.5C539.469 483.5 521.5 478.812 505.094 471H498.844C448.844 471.781 409 511.625 409 561.625V583.5C409 604.594 425.406 621 446.5 621H634.781C603.531 598.344 584 562.406 584 521Z" fill="white"/>
<path fill-rule="evenodd" clip-rule="evenodd" d="M709 421C653.531 421 609 466.312 609 521C609 576.469 653.531 621 709 621C763.687 621 809 576.469 809 521C809 466.312 763.687 421 709 421ZM709.305 515.815L697.919 504.429L711.135 491.213L738.787 518.865L701.782 555.87C698.122 559.326 693.242 560.953 688.363 560.546L675.553 559.123L661.931 572.543C661.321 573.152 660.304 573.152 659.694 572.543L657.457 570.306C656.848 569.696 656.848 568.679 657.457 567.866L670.877 554.447L669.454 541.434C669.047 536.554 670.674 531.674 674.13 528.218L679.62 522.932L690.803 534.318C691.413 534.928 692.632 534.928 693.242 534.318L695.479 531.878C696.089 531.268 696.089 530.251 695.479 529.641L684.093 518.255L693.242 509.106L704.629 520.492C705.238 521.102 706.255 521.102 706.865 520.492L709.305 518.052C709.915 517.442 709.915 516.425 709.305 515.815ZM744.48 469.457L760.543 485.52C761.152 486.13 761.152 487.147 760.543 487.757L758.306 490.196C757.696 490.806 756.679 490.806 756.069 490.196L750.173 484.3L741.023 493.653L756.069 508.496C756.679 509.106 756.679 510.122 756.069 510.732L749.156 517.645C748.546 518.458 747.326 518.458 746.717 517.645L712.355 483.283C711.745 482.47 711.745 481.454 712.355 480.844L719.268 473.931C719.878 473.321 720.894 473.321 721.504 473.931L724.961 477.387L736.347 488.977L745.7 479.827L739.803 473.931C739.194 473.321 739.194 472.304 739.803 471.694L742.243 469.457C742.853 468.848 743.87 468.848 744.48 469.457Z" fill="white"/>
<path fill-rule="evenodd" clip-rule="evenodd" d="M421 343H457.235C456.422 348.214 456 353.558 456 359C456 382.43 463.823 404.033 477 421.339V444.643C442.403 455.785 413.747 480.166 397 511.818V493C397 490 394 487 391 487H371C367.5 487 365 490 365 493V535H387.325C385.691 540.208 384.357 545.548 383.343 551H269V541C269 538 271.5 535 275 535H285V355C285 348.5 290 343 297 343H341V307C341 300.5 346 295 353 295H409C415.5 295 421 300.5 421 307V343ZM429 397C429 394 426 391 423 391H403C399.5 391 397 394 397 397V417C397 420.5 399.5 423 403 423H423C426 423 429 420.5 429 417V397ZM333 417C333 420.5 335.5 423 339 423H359C362 423 365 420.5 365 417V397C365 394 362 391 359 391H339C335.5 391 333 394 333 397V417ZM429 445C429 442 426 439 423 439H403C399.5 439 397 442 397 445V465C397 468.5 399.5 471 403 471H423C426 471 429 468.5 429 465V445ZM365 465V445C365 442 362 439 359 439H339C335.5 439 333 442 333 445V465C333 468.5 335.5 471 339 471H359C362 471 365 468.5 365 465ZM357 340C357 342 358 343 360 343H373V356C373 358 374 359 376 359H386C387.5 359 389 358 389 356V343H402C403.5 343 405 342 405 340V330C405 328.5 403.5 327 402 327H389V314C389 312.5 387.5 311 386 311H376C374 311 373 312.5 373 314V327H360C358 327 357 328.5 357 330V340Z" fill="white"/>
<defs>
<linearGradient id="paint0_linear" x1="9.51439e-06" y1="1080" x2="1080" y2="9.51439e-06" gradientUnits="userSpaceOnUse">
<stop stop-color="#293BDD"/>
<stop offset="1" stop-color="#E11DCE"/>
</linearGradient>
</defs>
</svg>
