<svg width="256" height="256" viewBox="0 0 256 256" fill="none" xmlns="http://www.w3.org/2000/svg">
<path d="M178.963 86.5C178.963 109.473 160.074 128 137.481 128H137.111C114.519 128 96 109.473 96 86.8705V86.5C96 63.8973 114.519 45 137.481 45C160.074 45 178.963 63.8973 178.963 86.5Z" fill="#404040"/>
<path d="M149.333 163.571C149.333 156.531 150.444 149.862 153.037 143.563C148.593 145.045 141.556 145.786 137.481 145.786C128.222 145.786 119.704 143.563 111.926 139.857H108.963C85.2593 140.228 66.3704 159.125 66.3704 182.839V193.214C66.3704 203.219 74.1481 211 84.1481 211H173.407C158.593 200.254 149.333 183.21 149.333 163.571Z" fill="#404040"/>
<path fill-rule="evenodd" clip-rule="evenodd" d="M208.593 116.143C182.296 116.143 161.185 137.634 161.185 163.571C161.185 189.879 182.296 211 208.593 211C234.519 211 256 189.879 256 163.571C256 137.634 234.519 116.143 208.593 116.143ZM208.737 161.112L203.339 155.712L209.605 149.444L222.714 162.559L205.171 180.11C203.436 181.749 201.122 182.521 198.809 182.328L192.736 181.653L186.278 188.017C185.989 188.307 185.507 188.307 185.218 188.017L184.158 186.957C183.868 186.667 183.868 186.185 184.158 185.799L190.519 179.435L189.845 173.263C189.652 170.949 190.423 168.634 192.062 166.995L194.664 164.488L199.966 169.888C200.255 170.177 200.833 170.177 201.122 169.888L202.183 168.731C202.472 168.441 202.472 167.959 202.183 167.67L196.785 162.27L201.122 157.93L206.52 163.33C206.809 163.62 207.291 163.62 207.58 163.33L208.737 162.173C209.026 161.884 209.026 161.402 208.737 161.112ZM225.413 139.126L233.028 146.744C233.317 147.033 233.317 147.515 233.028 147.805L231.967 148.962C231.678 149.251 231.196 149.251 230.907 148.962L228.112 146.165L223.774 150.601L230.907 157.641C231.196 157.93 231.196 158.412 230.907 158.702L227.63 161.98C227.341 162.366 226.762 162.366 226.473 161.98L210.183 145.683C209.894 145.297 209.894 144.815 210.183 144.526L213.46 141.247C213.749 140.958 214.231 140.958 214.521 141.247L216.159 142.886L221.557 148.383L225.991 144.044L223.196 141.247C222.907 140.958 222.907 140.476 223.196 140.186L224.352 139.126C224.642 138.836 225.124 138.836 225.413 139.126Z" fill="#404040"/>
<path fill-rule="evenodd" clip-rule="evenodd" d="M72.0593 79.1486H89.2375C88.852 81.6216 88.6519 84.156 88.6519 86.7371C88.6519 97.8497 92.3606 108.096 98.6074 116.304V127.356C82.2059 132.641 68.621 144.205 60.6815 159.217V150.291C60.6815 148.869 59.2593 147.446 57.837 147.446H48.3556C46.6963 147.446 45.5111 148.869 45.5111 150.291V170.211H56.0948C55.3204 172.681 54.6879 175.214 54.2068 177.8H0V173.057C0 171.634 1.18519 170.211 2.84444 170.211H7.58519V84.84C7.58519 81.7571 9.95556 79.1486 13.2741 79.1486H34.1333V62.0743C34.1333 58.9914 36.5037 56.3829 39.8222 56.3829H66.3704C69.4519 56.3829 72.0593 58.9914 72.0593 62.0743V79.1486ZM75.8519 104.76C75.8519 103.337 74.4296 101.914 73.0074 101.914H63.5259C61.8667 101.914 60.6815 103.337 60.6815 104.76V114.246C60.6815 115.906 61.8667 117.091 63.5259 117.091H73.0074C74.4296 117.091 75.8519 115.906 75.8519 114.246V104.76ZM30.3407 114.246C30.3407 115.906 31.5259 117.091 33.1852 117.091H42.6667C44.0889 117.091 45.5111 115.906 45.5111 114.246V104.76C45.5111 103.337 44.0889 101.914 42.6667 101.914H33.1852C31.5259 101.914 30.3407 103.337 30.3407 104.76V114.246ZM75.8519 127.526C75.8519 126.103 74.4296 124.68 73.0074 124.68H63.5259C61.8667 124.68 60.6815 126.103 60.6815 127.526V137.011C60.6815 138.671 61.8667 139.857 63.5259 139.857H73.0074C74.4296 139.857 75.8519 138.671 75.8519 137.011V127.526ZM45.5111 137.011V127.526C45.5111 126.103 44.0889 124.68 42.6667 124.68H33.1852C31.5259 124.68 30.3407 126.103 30.3407 127.526V137.011C30.3407 138.671 31.5259 139.857 33.1852 139.857H42.6667C44.0889 139.857 45.5111 138.671 45.5111 137.011ZM41.7185 77.7257C41.7185 78.6743 42.1926 79.1486 43.1407 79.1486H49.3037V85.3143C49.3037 86.2629 49.7778 86.7371 50.7259 86.7371H55.4667C56.1778 86.7371 56.8889 86.2629 56.8889 85.3143V79.1486H63.0519C63.763 79.1486 64.4741 78.6743 64.4741 77.7257V72.9829C64.4741 72.2714 63.763 71.56 63.0519 71.56H56.8889V65.3943C56.8889 64.6829 56.1778 63.9714 55.4667 63.9714H50.7259C49.7778 63.9714 49.3037 64.6829 49.3037 65.3943V71.56H43.1407C42.1926 71.56 41.7185 72.2714 41.7185 72.9829V77.7257Z" fill="#404040"/>
</svg>
